<?xml version="1.0" standalone="no"?>
<!DOCTYPE svg PUBLIC "-//W3C//DTD SVG 20010904//EN"
 "http://www.w3.org/TR/2001/REC-SVG-20010904/DTD/svg10.dtd">
<svg version="1.0" xmlns="http://www.w3.org/2000/svg"
 width="1000.000000pt" height="1000.000000pt" viewBox="0 0 1000.000000 1000.000000"
 preserveAspectRatio="xMidYMid meet">
<metadata>
Created by potrace 1.14, written by Peter Selinger 2001-2017
</metadata>
<g transform="translate(0.000000,1000.000000) scale(0.100000,-0.100000)"
fill="#000000" stroke="none">
<path d="M2669 8136 c-2 -2 -17 -6 -34 -9 -74 -12 -117 -30 -152 -63 -7 -7
-16 -14 -20 -16 -19 -8 -67 -84 -79 -124 -25 -83 -26 -120 -4 -203 11 -45 25
-91 30 -103 10 -24 62 -169 250 -698 62 -173 128 -358 147 -410 20 -52 59
-162 88 -245 29 -82 97 -271 150 -420 53 -148 118 -331 145 -405 70 -197 205
-577 255 -715 24 -66 66 -185 95 -265 28 -80 55 -154 60 -165 5 -11 16 -40 24
-65 8 -25 33 -97 56 -160 23 -63 79 -223 126 -355 47 -132 89 -249 94 -260 5
-11 68 -186 140 -390 72 -203 138 -384 146 -400 40 -77 113 -131 207 -156 66
-17 118 -19 613 -19 502 0 546 1 616 19 139 36 191 93 261 291 174 484 248
690 337 940 56 157 121 339 145 405 24 66 71 199 105 295 53 149 168 470 255
710 13 36 51 144 85 240 82 230 133 372 220 615 39 110 93 261 120 335 26 74
68 191 93 260 25 69 59 166 77 215 30 84 87 245 167 465 19 52 49 138 68 190
18 52 41 115 49 140 9 25 26 80 37 122 18 73 18 82 4 150 -28 134 -109 213
-246 242 -75 15 -141 17 -624 14 -297 -2 -551 -7 -565 -11 -14 -5 -36 -10 -50
-13 -27 -6 -130 -73 -130 -85 0 -4 -11 -20 -24 -36 -23 -27 -70 -165 -394
-1148 -350 -1060 -575 -1736 -577 -1733 -1 2 -30 86 -64 188 -35 102 -67 194
-71 205 -5 11 -25 70 -45 130 -94 279 -389 1139 -404 1178 -6 15 -8 27 -5 27
2 0 0 10 -7 21 -6 12 -39 105 -74 208 -329 969 -316 938 -406 1003 -24 17 -74
39 -114 49 -64 17 -120 19 -621 19 -303 0 -553 -2 -555 -4z"/>
</g>
</svg>
